<?xml version="1.0" encoding="UTF-8"?>
<svg xmlns="http://www.w3.org/2000/svg" viewBox="0 0 205.84 236.82">
  <g id="uuid-5b122bc4-282b-43ea-8417-1e9a75f157b0" data-name="Слой 2">
    <path d="m28.64,5.81c3.14,7.76,6.29,15.53,9.43,23.29l2.64,17.83-6.39,1.76,2.42,3.96-2.42,3.52v4.84l-2.42,3.52,4.4,1.76.66,3.96-4.4,2.64.66,5.72,1.1,4.4h6.39v6.39l-1.32,3.08,1.32,7.27,6.17,4.18,1.76,6.39-4.62,9.47-4.4,3.74,9.03,11.67,6.61,3.3,5.28,5.72v4.62l5.28,6.17-3.3,7.71-3.08,10.57-9.69,9.25-21.8,29.94,4.84,6.39,15.63,3.08,39.63,14.31,5.5-1.76,2.42-5.5,2.86-3.3,5.28.88,1.54-4.84-4.99-1.1,1.69-3.74,9.03-.44,3.74,3.3,2.42-3.96,5.06-.44,4.84,1.1h2.86l1.32,3.74,18.94-9.91,3.08-4.62h2.86l2.42-1.1,5.28,3.08,7.49-.66v-5.5l2.2-1.54v-3.96l1.32-5.5-3.3-1.1-.66-7.49-5.94-.22,3.08-4.62.88-5.5-2.2-6.83-11.45.88-5.28-5.06-5.28-9.25,2.64-6.39-2.64-8.15-6.39-4.84,3.3-2.86,7.49-.44,1.98-4.62-.66-8.15-4.84-1.76-1.1-5.5-4.84-1.76-1.1-4.4-3.74-1.1-7.49,1.98-8.15-8.81,3.96-5.06-2.42-5.28,1.76-2.42-3.08-6.83.88-3.52-2.2-4.4-3.96-8.37,3.52-2.42,2.2-3.3v-5.72l-.22-3.52,2.42,2.86,2.64-2.64-3.3-3.08-.22-3.3-2.2-.44.22-3.08-7.93-7.27-1.98-2.2-5.06-1.32-1.76-2.86-3.96-3.74,1.83-1.32-5.36-2.86-4.62-2.42-7.05-1.54-1.32,4.18-2.42,1.54-.66,4.18-6.83.66-2.42-2.64-1.1-3.52-3.08-1.32v-5.72c-.99-.15-2.52-.31-4.38-.23-2.26.09-2.82.45-4.68.61-3.41.29-3.59-.73-7.38-.72-3.04.01-2.97.67-6.28.61-2.29-.04-2.55-.36-5.01-.33-2.08.03-2.69.27-4.84.33-1.97.06-3.58-.08-4.61-.21Z" style="fill: #353535; stroke: #282828; stroke-miterlimit: 10;"/>
  </g>
  <g id="uuid-55aa0894-a2a3-427f-a479-149b08708515" data-name="header">
    <polygon points="31.9 2.34 42.03 26.02 44.67 43.86 38.29 45.62 40.71 49.58 38.29 53.1 38.29 57.95 35.87 61.47 40.27 63.23 40.93 67.2 36.53 69.84 37.19 75.56 38.29 79.97 44.67 79.97 44.67 86.35 127.46 86.35 125.04 81.07 126.8 78.65 123.72 71.82 124.6 68.3 118.44 55.53 121.96 53.1 124.16 49.8 123.94 40.55 126.36 43.42 129.01 40.77 125.7 37.69 125.48 34.39 123.28 33.95 123.5 30.87 115.57 23.6 113.59 21.4 108.53 20.08 106.77 17.21 102.8 13.47 104.64 12.15 94.66 6.87 87.61 5.32 86.29 9.51 83.87 11.05 83.21 15.23 76.38 15.89 73.96 13.25 72.86 9.73 69.78 8.41 69.78 2.68 65.4 2.45 60.72 3.05 53.34 2.34 47.07 2.94 42.06 2.61 37.21 2.94 31.9 2.34" style="fill: #db0d15; stroke: #d61116; stroke-miterlimit: 10;"/>
  </g>
  <g id="uuid-d278666e-4b5f-4b2f-966e-fa354eaca49b" data-name="body">
    <polygon points="44.67 86.35 43.35 89.44 44.67 96.7 50.84 100.88 52.6 107.27 47.98 116.74 43.57 120.48 52.6 132.15 59.21 135.45 64.49 141.18 64.49 145.8 69.78 151.97 66.47 159.67 156.62 159.67 154.33 157.47 149.04 148.22 151.68 141.84 149.04 133.69 142.66 128.85 145.96 125.99 153.45 125.55 155.43 120.92 154.77 112.77 149.92 111.01 148.82 105.51 143.98 103.75 142.88 99.34 139.13 98.24 131.65 100.22 123.5 91.42 127.46 86.35 44.67 86.35" style="fill: #2ebad4; stroke: #46bcc6; stroke-miterlimit: 10;"/>
  </g>
  <g id="uuid-4f343ce7-e3ee-4790-824e-089b6ff2fe05" data-name="footer">
    <polygon points="66.47 159.67 63.39 170.24 53.7 179.49 31.9 209.44 36.75 215.82 52.38 218.9 92.01 233.21 97.52 231.45 99.94 225.95 102.8 222.65 108.09 223.53 109.63 218.68 104.64 217.58 106.33 213.84 115.35 213.4 119.1 216.7 121.52 212.74 126.58 212.3 131.43 213.4 134.29 213.4 135.61 217.14 154.55 207.23 157.63 202.61 160.49 202.61 162.91 201.51 168.2 204.59 175.68 203.93 175.68 198.43 177.89 196.88 177.89 192.92 179.21 187.42 175.9 186.32 175.24 178.83 169.3 178.61 172.38 173.99 173.26 168.48 171.06 161.66 159.61 162.54 156.62 159.67 66.47 159.67" style="fill: #279e38; stroke: #279e38; stroke-miterlimit: 10;"/>
  </g>
  <g id="uuid-bce533a9-63de-4acf-883b-7c21ac2aa6fc" data-name="Слой 9">
    <text transform="translate(3.5 170.9)" style="fill: #f6f6f6; font-family: LucidaConsole, &apos;Lucida Console&apos;; font-size: 165px; stroke: #1d1d1b; stroke-miterlimit: 10; stroke-width: 7px;"><tspan x="0" y="0">RK</tspan></text>
  </g>
</svg>