<?xml version="1.0" encoding="UTF-8"?>
<svg xmlns="http://www.w3.org/2000/svg" viewBox="0 0 152.48 236.82">
  <g id="uuid-df8a620e-0d3a-4c3e-8545-48aab9b4d7ca" data-name="Слой 2">
    <path d="m1.32,5.81c3.14,7.76,6.29,15.53,9.43,23.29l2.64,17.83-6.39,1.76,2.42,3.96-2.42,3.52v4.84l-2.42,3.52,4.4,1.76.66,3.96-4.4,2.64.66,5.72,1.1,4.4h6.39v6.39l-1.32,3.08,1.32,7.27,6.17,4.18,1.76,6.39-4.62,9.47-4.4,3.74,9.03,11.67,6.61,3.3,5.28,5.72v4.62l5.28,6.17-3.3,7.71-3.08,10.57-9.69,9.25L.62,212.52l4.84,6.39,15.63,3.08,39.63,14.31,5.5-1.76,2.42-5.5,2.86-3.3,5.28.88,1.54-4.84-4.99-1.1,1.69-3.74,9.03-.44,3.74,3.3,2.42-3.96,5.06-.44,4.84,1.1h2.86l1.32,3.74,18.94-9.91,3.08-4.62h2.86l2.42-1.1,5.28,3.08,7.49-.66v-5.5l2.2-1.54v-3.96l1.32-5.5-3.3-1.1-.66-7.49-5.94-.22,3.08-4.62.88-5.5-2.2-6.83-11.45.88-5.28-5.06-5.28-9.25,2.64-6.39-2.64-8.15-6.39-4.84,3.3-2.86,7.49-.44,1.98-4.62-.66-8.15-4.84-1.76-1.1-5.5-4.84-1.76-1.1-4.4-3.74-1.1-7.49,1.98-8.15-8.81,3.96-5.06-2.42-5.28,1.76-2.42-3.08-6.83.88-3.52-2.2-4.4-3.96-8.37,3.52-2.42,2.2-3.3v-5.72l-.22-3.52,2.42,2.86,2.64-2.64-3.3-3.08-.22-3.3-2.2-.44.22-3.08-7.93-7.27-1.98-2.2-5.06-1.32-1.76-2.86-3.96-3.74,1.83-1.32-5.36-2.86-4.62-2.42-7.05-1.54-1.32,4.18-2.42,1.54-.66,4.18-6.83.66-2.42-2.64-1.1-3.52-3.08-1.32v-5.72c-.99-.15-2.52-.31-4.38-.23-2.26.09-2.82.45-4.68.61-3.41.29-3.59-.73-7.38-.72-3.04.01-2.97.67-6.28.61-2.29-.04-2.55-.36-5.01-.33-2.08.03-2.69.27-4.84.33-1.97.06-3.58-.08-4.61-.21Z" style="fill: #353535; stroke: #282828; stroke-miterlimit: 10;"/>
  </g>
  <g id="uuid-2f5d5c17-a1b7-4f80-af53-37406289dc78" data-name="header">
    <polygon points="4.59 2.34 14.71 26.02 17.36 43.86 10.97 45.62 13.39 49.58 10.97 53.1 10.97 57.95 8.55 61.47 12.95 63.23 13.61 67.2 9.21 69.84 9.87 75.56 10.97 79.97 17.36 79.97 17.36 86.35 100.15 86.35 97.72 81.07 99.49 78.65 96.4 71.82 97.28 68.3 91.12 55.53 94.64 53.1 96.84 49.8 96.62 40.55 99.04 43.42 101.69 40.77 98.38 37.69 98.16 34.39 95.96 33.95 96.18 30.87 88.26 23.6 86.27 21.4 81.21 20.08 79.45 17.21 75.49 13.47 77.32 12.15 67.34 6.87 60.29 5.32 58.97 9.51 56.55 11.05 55.89 15.23 49.06 15.89 46.64 13.25 45.54 9.73 42.46 8.41 42.46 2.68 38.08 2.45 33.4 3.05 26.02 2.34 19.75 2.94 14.74 2.61 9.9 2.94 4.59 2.34" style="fill: #db0d15; stroke: #d61116; stroke-miterlimit: 10;"/>
  </g>
  <g id="uuid-70d0ae60-bd26-446a-9c08-3d25d8ba1586" data-name="body">
    <polygon points="17.36 86.35 16.04 89.44 17.36 96.7 23.52 100.88 25.28 107.27 20.66 116.74 16.26 120.48 25.28 132.15 31.89 135.45 37.17 141.18 37.17 145.8 42.46 151.97 39.16 159.67 129.31 159.67 127.01 157.47 121.72 148.22 124.37 141.84 121.72 133.69 115.34 128.85 118.64 125.99 126.13 125.55 128.11 120.92 127.45 112.77 122.6 111.01 121.5 105.51 116.66 103.75 115.56 99.34 111.82 98.24 104.33 100.22 96.18 91.42 100.15 86.35 17.36 86.35" style="fill: #2ebad4; stroke: #46bcc6; stroke-miterlimit: 10;"/>
  </g>
  <g id="uuid-8bdfbda8-18ca-44e0-b47c-df6303c871a2" data-name="footer">
    <polygon points="39.16 159.67 36.07 170.24 26.38 179.49 4.59 209.44 9.43 215.82 25.06 218.9 64.7 233.21 70.2 231.45 72.62 225.95 75.49 222.65 80.77 223.53 82.31 218.68 77.32 217.58 79.01 213.84 88.04 213.4 91.78 216.7 94.2 212.74 99.27 212.3 104.11 213.4 106.97 213.4 108.29 217.14 127.23 207.23 130.31 202.61 133.17 202.61 135.6 201.51 140.88 204.59 148.37 203.93 148.37 198.43 150.57 196.88 150.57 192.92 151.89 187.42 148.59 186.32 147.93 178.83 141.98 178.61 145.06 173.99 145.94 168.48 143.74 161.66 132.29 162.54 129.31 159.67 39.16 159.67" style="fill: #279e38; stroke: #279e38; stroke-miterlimit: 10;"/>
  </g>
</svg>